PathFileType	4	(X/Y/Z)	C:\Users\WrightLab\Desktop\Jo\P3_32.trc
DataRate	CameraRate	NumFrames	NumMarkers	Units	OrigDataRate	OrigDataStartFrame	OrigNumFrames
100.00	100.00	       14	19	mm	100.00	420	       671
Frame#	Time	Headset_Front			Headset_Back			Headset_Left			Headset_Right			Left_Shoulder			Right_Shoulder			Sternum			C7			Left Elbow			Right Elbow			Left Wrist			Right Wrist			Left ASIS			Right ASIS			S2			Left Knee			Right Knee			Left Ankle			Right Ankle			
		X1	Y1	Z1	X2	Y2	Z2	X3	Y3	Z3	X4	Y4	Z4	X5	Y5	Z5	X6	Y6	Z6	X7	Y7	Z7	X8	Y8	Z8	X9	Y9	Z9	X10	Y10	Z10	X11	Y11	Z11	X12	Y12	Z12	X13	Y13	Z13	X14	Y14	Z14	X15	Y15	Z15	X16	Y16	Z16	X17	Y17	Z17	X18	Y18	Z18	X19	Y19	Z19	

420	4.190	-63.69345	1504.43457	816.17773				9.11548	1556.93823	629.95685	-188.80359	1528.44006	733.88300	62.67675	1328.87732	533.56183	-279.71841	1329.62012	644.78424	-59.45451	1209.11169	711.80792	-128.07063	1378.31226	545.47516	171.91025	1009.73871	529.00043	-373.91846	989.93750	626.92517	226.48770	860.18658	658.86560	-339.01880	805.53436	754.50568	33.44769	845.35229	627.88757	-192.49886	854.94794	739.25439	-168.21646	925.49689	490.40656	-33.54802	437.86075	486.91333	-131.78633	455.91049	818.77197	-119.89352	144.00958	348.21558	-69.92718	133.10628	885.33032	
421	4.200	-61.25119	1504.24841	825.42676				12.08543	1556.48560	637.81482	-186.11238	1527.79956	742.05731	66.17066	1327.94751	544.25305	-276.56097	1328.38489	653.51221	-56.24561	1208.14807	722.06763	-124.12616	1377.25317	554.24573	174.30878	1008.47900	539.29047	-370.06946	988.43945	635.36206	228.10072	859.50500	670.34149	-336.13995	803.68542	762.16510	38.32778	844.22058	639.12476	-189.14148	855.22351	751.04730	-163.08742	924.72638	500.99936	-28.35092	436.76031	495.71970	-126.88021	454.93369	828.74774	-117.68960	146.77632	350.36722	-67.01896	130.34464	888.79639	
422	4.210	-58.90988	1504.03186	834.75800				14.91901	1556.07703	647.59406	-183.09216	1527.02051	750.75842	70.04412	1327.26672	554.46344	-272.79187	1327.38550	661.56848	-53.24611	1207.97595	732.30957	-120.89311	1376.31812	563.56177	176.57907	1007.34698	550.06580	-365.87540	987.00067	643.18280	229.72551	857.79932	681.40918	-333.54358	801.82507	769.53497	42.94991	843.42181	650.72681	-184.08238	854.69440	760.77136	-158.03970	923.36346	511.64798	-23.81845	435.77658	506.79291	-122.26743	453.88263	838.27838	-115.63159	149.28000	354.19232	-63.24147	130.02943	895.61761	
423	4.220	-56.45743	1504.22864	844.09351				17.95554	1556.12659	655.44757	-180.54335	1526.89648	759.37421	74.02688	1326.54431	565.26953	-270.03519	1326.80859	669.77570	-49.78413	1207.94202	742.58325	-117.56013	1376.02307	573.40552	179.14980	1005.79358	560.72760	-362.60391	985.66919	651.29254	231.05426	857.10266	692.59076	-330.34225	799.76868	776.26788	46.63214	841.96399	662.25848	-180.84360	855.56329	773.24316	-153.24345	922.90277	522.60309	-18.94060	434.55627	517.14545	-117.37856	452.66913	847.59583	-112.65440	152.53224	357.36005	-58.95433	129.03958	901.49866	
424	4.230	-54.59148	1505.11316	853.56580				21.01369	1556.04529	666.26074	-178.16864	1527.05273	768.57568	77.34777	1325.89368	575.31573	-266.54218	1325.39160	679.17914	-46.82856	1207.75037	753.31873	-114.34266	1375.29907	582.45013	181.25816	1004.86938	570.69971	-358.72595	985.42126	659.92877	232.41452	855.90375	703.45135	-327.53809	798.75256	784.13123	51.22582	842.00336	674.91809	-177.52803	856.25061	785.14575	-148.04881	922.49377	533.23883	-13.70906	433.62247	528.54407	-113.11726	453.01944	857.40179	-110.23334	155.77756	361.73651	-55.93999	127.76427	906.40063	
425	4.240	-51.85935	1505.61511	862.98938				23.83515	1556.33484	676.50610	-175.49922	1527.89087	777.40710	81.25197	1325.87280	585.59863	-263.42972	1325.03491	687.91309	-44.15565	1208.94177	763.96753	-110.70644	1375.02698	592.79724	183.13406	1003.91046	581.38672	-355.50571	984.59619	667.73578	233.05089	854.46851	714.08649	-324.33987	797.68970	791.55676	54.87503	841.32910	687.74164	-172.92064	856.88647	795.07324	-142.46854	922.36609	544.45721	-7.87281	433.48962	539.35736	-108.36507	454.90521	867.84760	-106.79271	160.17322	365.96719	-54.24257	127.08635	910.73468	
426	4.250	-49.61930	1506.71899	872.39661				27.01652	1556.79028	686.08057	-172.88463	1528.26392	786.28229	84.90661	1325.94910	596.33820	-260.50446	1325.01270	696.90662	-41.47496	1209.61157	774.31549	-107.54023	1374.84485	602.19818	184.84679	1002.94354	591.72992	-351.54599	984.63214	675.97113	233.92685	853.84235	724.73621	-321.43079	797.65369	799.72876	59.17039	840.96613	700.42401	-169.87486	858.41602	807.96893	-137.22284	922.21283	555.37634	-1.94426	432.83273	550.60840	-102.17789	457.04700	877.22028	-102.91137	165.00455	370.92627	-52.10376	126.14133	914.64392	
427	4.260	-47.33329	1507.83691	881.86353				30.34333	1557.36426	696.11761	-170.24617	1529.48962	795.12262	88.60307	1326.62976	606.50684	-257.38464	1325.26575	705.53162	-38.34995	1210.41785	785.02911	-103.62305	1375.39526	611.17206	186.87288	1003.11011	602.40808	-347.85056	985.08582	683.94373	234.57005	852.92554	735.24652	-317.91559	797.65173	807.33411	63.05635	841.49371	713.98761	-166.06290	859.62335	819.21545	-131.96327	922.21771	566.62195	4.53897	432.96091	562.51770	-95.71580	459.16956	889.22491	-99.48802	169.02873	376.97897	-50.97860	126.42370	918.43152	
428	4.270	-45.31575	1509.17993	891.62164				33.16928	1558.69324	704.98376	-167.11629	1530.16699	804.01465	92.62636	1327.20471	617.40851	-254.36273	1325.90308	714.35132	-35.15680	1212.00708	795.13916	-100.12600	1375.68530	620.66150	188.57133	1002.49182	613.72083	-343.70087	985.46973	691.95984	235.59903	852.27679	746.08374	-314.52359	798.03430	815.14447	66.65840	841.56348	726.96899	-163.88097	862.46375	831.64917	-126.47963	922.77747	578.19385	11.32527	433.07428	574.58197	-89.55645	460.04828	900.09442	-95.17780	174.02707	384.22955	-49.70666	126.66694	922.86200	
429	4.280	-42.85075	1510.77954	901.18927				36.67827	1559.65527	716.41302	-164.31886	1531.50964	813.42975	95.83897	1328.44641	627.52826	-251.21643	1326.87708	722.97083	-32.36423	1213.92871	805.55743	-96.74279	1377.25671	630.35089	189.74295	1002.74884	623.89362	-339.46594	985.87555	699.99078	234.48990	850.50909	753.75879	-310.72726	798.91608	823.34369	69.87082	842.14081	739.48712	-159.70810	863.61145	841.49158	-120.73196	923.28320	588.86755	19.13400	433.02676	587.37659	-84.96069	460.60535	910.81683	-89.61989	178.76971	391.28632	-47.85550	125.48628	926.27417	
430	4.290	-40.17827	1512.05652	910.59296							-161.16522	1533.24341	822.04095	100.04918	1329.56421	637.79791	-248.20828	1328.35498	731.55554	-29.57526	1215.99023	816.73230	-92.89889	1378.29163	638.89490	191.94955	1003.73273	634.04858	-335.56723	986.85229	708.03833	234.89407	849.87183	763.39960	-307.34216	800.32684	832.05487	73.01878	842.60010	752.42950	-156.69316	866.93933	852.69501	-115.70952	924.81415	599.96198	27.54198	433.24030	601.37415	-81.79038	462.41098	920.24432	-83.88656	184.03238	398.49826	-47.48257	126.15127	928.99951	
431	4.300	-37.41153	1513.83008	919.89990							-158.48628	1534.78003	831.11469	103.63753	1331.23828	647.72980	-244.86653	1329.67310	739.64758	-26.95187	1218.55896	826.85443	-89.32416	1379.48962	648.40436	193.16185	1004.38025	644.93848	-331.49042	988.72784	715.73071	234.66220	849.67133	773.78333	-304.18817	802.44739	840.68774	75.16670	843.60864	763.48004	-152.88591	868.88824	861.61896	-110.48032	926.68091	610.95758	35.75904	432.87589	615.83771	-79.20805	463.50806	927.58362	-78.58080	188.74126	408.64127	-46.51430	126.05342	930.63080	
432	4.310	-34.33167	1514.89172	929.19623							-155.99352	1536.57043	840.12585	107.06106	1332.90869	657.89508	-241.36801	1331.26282	747.37683	-23.96321	1221.11182	837.13202	-85.00526	1380.86658	657.54730	193.74089	1005.02991	654.65814	-327.81796	990.56610	723.74567	234.00951	848.85724	782.36304	-300.38733	804.35986	848.77704	79.20425	846.72546	776.84900	-151.34850	872.24390	874.07874	-104.71736	928.09326	621.44305	44.53972	432.54434	631.52850	-77.50511	464.49786	934.34521	-73.12086	195.86197	417.79614	-45.44214	126.22022	932.30237	
433	4.320	-31.65864	1516.46729	938.32513							-152.88242	1537.75574	849.31555	110.75827	1334.48743	667.58295	-238.24384	1333.12427	756.21924	-21.61191	1223.51257	847.40729	-81.28410	1382.18567	665.69879	195.60419	1006.14624	664.85211	-323.90317	992.27612	731.80603	233.99547	848.30640	791.65057	-296.61987	806.27771	858.31732	81.72679	848.46265	789.16461	-147.85907	874.47681	883.83813	-100.19984	929.77472	631.75415	53.08065	432.19885	647.43372	-76.74776	464.67300	939.92236	-66.40343	201.72691	428.62579	-46.13598	126.55778	934.60962	
